<mxfile host="app.diagrams.net" agent="Mozilla/5.0 (Windows NT 10.0; Win64; x64) AppleWebKit/537.36 (KHTML, like Gecko) Chrome/130.0.0.0 Safari/537.36 Edg/130.0.0.0" version="24.8.4">
  <diagram name="Page-1" id="J4-sNUyuceoywE3BoaUv">
    <mxGraphModel dx="1585" dy="853" grid="1" gridSize="10" guides="1" tooltips="1" connect="1" arrows="1" fold="1" page="1" pageScale="1" pageWidth="850" pageHeight="1100" math="0" shadow="0">
      <root>
        <mxCell id="0" />
        <mxCell id="1" parent="0" />
        <mxCell id="OlUA_QKoWYIxiVcciG1O-1" value="" style="ellipse;html=1;shape=startState;fillColor=#000000;strokeColor=#ff0000;rounded=1;shadow=0;comic=0;labelBackgroundColor=none;fontFamily=Verdana;fontSize=12;fontColor=#000000;align=center;direction=south;" vertex="1" parent="1">
          <mxGeometry x="400" y="195" width="30" height="30" as="geometry" />
        </mxCell>
        <mxCell id="OlUA_QKoWYIxiVcciG1O-2" value="GREEN LIGHT&lt;div&gt;NS&lt;/div&gt;" style="rounded=1;whiteSpace=wrap;html=1;arcSize=24;fillColor=#ffffc0;strokeColor=#ff0000;shadow=0;comic=0;labelBackgroundColor=none;fontFamily=Verdana;fontSize=12;fontColor=#000000;align=center;" vertex="1" parent="1">
          <mxGeometry x="510" y="180" width="120" height="60" as="geometry" />
        </mxCell>
        <mxCell id="OlUA_QKoWYIxiVcciG1O-3" style="edgeStyle=orthogonalEdgeStyle;html=1;exitX=1;exitY=0.25;entryX=0.25;entryY=0;labelBackgroundColor=none;endArrow=open;endSize=8;strokeColor=#ff0000;fontFamily=Verdana;fontSize=12;align=left;entryDx=0;entryDy=0;exitDx=0;exitDy=0;" edge="1" parent="1" source="OlUA_QKoWYIxiVcciG1O-4" target="OlUA_QKoWYIxiVcciG1O-6">
          <mxGeometry relative="1" as="geometry">
            <mxPoint x="830" y="260" as="sourcePoint" />
            <mxPoint x="1090" y="355" as="targetPoint" />
            <Array as="points">
              <mxPoint x="830" y="240" />
              <mxPoint x="1090" y="240" />
            </Array>
          </mxGeometry>
        </mxCell>
        <mxCell id="OlUA_QKoWYIxiVcciG1O-4" value="YELLOW LIGHT&lt;div&gt;NS&lt;/div&gt;" style="rounded=1;whiteSpace=wrap;html=1;arcSize=24;fillColor=#ffffc0;strokeColor=#ff0000;shadow=0;comic=0;labelBackgroundColor=none;fontFamily=Verdana;fontSize=12;fontColor=#000000;align=center;" vertex="1" parent="1">
          <mxGeometry x="710" y="260" width="120" height="60" as="geometry" />
        </mxCell>
        <mxCell id="OlUA_QKoWYIxiVcciG1O-6" value="RED LIGHT&lt;div&gt;NS&lt;/div&gt;" style="rounded=1;whiteSpace=wrap;html=1;arcSize=24;fillColor=#ffffc0;strokeColor=#ff0000;shadow=0;comic=0;labelBackgroundColor=none;fontFamily=Verdana;fontSize=12;fontColor=#000000;align=center;" vertex="1" parent="1">
          <mxGeometry x="1060" y="340" width="120" height="60" as="geometry" />
        </mxCell>
        <mxCell id="OlUA_QKoWYIxiVcciG1O-7" value="GREEN LIGHT&lt;br&gt;EW" style="rounded=1;whiteSpace=wrap;html=1;arcSize=24;fillColor=#ffffc0;strokeColor=#ff0000;shadow=0;comic=0;labelBackgroundColor=none;fontFamily=Verdana;fontSize=12;fontColor=#000000;align=center;" vertex="1" parent="1">
          <mxGeometry x="780" y="370" width="120" height="60" as="geometry" />
        </mxCell>
        <mxCell id="OlUA_QKoWYIxiVcciG1O-8" style="edgeStyle=orthogonalEdgeStyle;html=1;labelBackgroundColor=none;endArrow=open;endSize=8;strokeColor=#ff0000;fontFamily=Verdana;fontSize=12;align=left;" edge="1" parent="1" source="OlUA_QKoWYIxiVcciG1O-1" target="OlUA_QKoWYIxiVcciG1O-2">
          <mxGeometry relative="1" as="geometry" />
        </mxCell>
        <mxCell id="OlUA_QKoWYIxiVcciG1O-9" style="edgeStyle=orthogonalEdgeStyle;html=1;labelBackgroundColor=none;endArrow=open;endSize=8;strokeColor=#ff0000;fontFamily=Verdana;fontSize=12;align=left;entryX=0;entryY=0.5;" edge="1" parent="1" source="OlUA_QKoWYIxiVcciG1O-2" target="OlUA_QKoWYIxiVcciG1O-4">
          <mxGeometry relative="1" as="geometry">
            <Array as="points">
              <mxPoint x="600" y="290" />
            </Array>
          </mxGeometry>
        </mxCell>
        <mxCell id="OlUA_QKoWYIxiVcciG1O-10" style="edgeStyle=orthogonalEdgeStyle;html=1;exitX=0.25;exitY=0;entryX=0.5;entryY=0;labelBackgroundColor=none;endArrow=open;endSize=8;strokeColor=#ff0000;fontFamily=Verdana;fontSize=12;align=left;entryDx=0;entryDy=0;" edge="1" parent="1" target="OlUA_QKoWYIxiVcciG1O-42">
          <mxGeometry relative="1" as="geometry">
            <mxPoint x="540" y="370" as="sourcePoint" />
          </mxGeometry>
        </mxCell>
        <mxCell id="OlUA_QKoWYIxiVcciG1O-11" style="edgeStyle=orthogonalEdgeStyle;html=1;exitX=1;exitY=0.5;entryX=0;entryY=0.5;labelBackgroundColor=none;endArrow=open;endSize=8;strokeColor=#ff0000;fontFamily=Verdana;fontSize=12;align=left;exitDx=0;exitDy=0;exitPerimeter=0;" edge="1" parent="1" source="OlUA_QKoWYIxiVcciG1O-17" target="OlUA_QKoWYIxiVcciG1O-7">
          <mxGeometry relative="1" as="geometry">
            <mxPoint x="630" y="400" as="sourcePoint" />
          </mxGeometry>
        </mxCell>
        <mxCell id="OlUA_QKoWYIxiVcciG1O-12" style="edgeStyle=orthogonalEdgeStyle;html=1;exitX=1;exitY=0.5;labelBackgroundColor=none;endArrow=open;endSize=8;strokeColor=#ff0000;fontFamily=Verdana;fontSize=12;align=left;exitDx=0;exitDy=0;" edge="1" parent="1" source="OlUA_QKoWYIxiVcciG1O-7">
          <mxGeometry relative="1" as="geometry">
            <mxPoint x="1000" y="440" as="targetPoint" />
          </mxGeometry>
        </mxCell>
        <mxCell id="OlUA_QKoWYIxiVcciG1O-13" value="60 Secs" style="text;html=1;align=center;verticalAlign=middle;resizable=0;points=[];autosize=1;strokeColor=none;fillColor=none;" vertex="1" parent="1">
          <mxGeometry x="595" y="258" width="70" height="30" as="geometry" />
        </mxCell>
        <mxCell id="OlUA_QKoWYIxiVcciG1O-14" value="5 Secs" style="text;html=1;align=center;verticalAlign=middle;resizable=0;points=[];autosize=1;strokeColor=none;fillColor=none;" vertex="1" parent="1">
          <mxGeometry x="910" y="220" width="60" height="30" as="geometry" />
        </mxCell>
        <mxCell id="OlUA_QKoWYIxiVcciG1O-15" value="70 Secs" style="text;html=1;align=center;verticalAlign=middle;resizable=0;points=[];autosize=1;strokeColor=none;fillColor=none;" vertex="1" parent="1">
          <mxGeometry x="805" y="150" width="70" height="30" as="geometry" />
        </mxCell>
        <mxCell id="OlUA_QKoWYIxiVcciG1O-16" value="YELLOW LIGHT&lt;br&gt;EW" style="rounded=1;whiteSpace=wrap;html=1;arcSize=24;fillColor=#ffffc0;strokeColor=#ff0000;shadow=0;comic=0;labelBackgroundColor=none;fontFamily=Verdana;fontSize=12;fontColor=#000000;align=center;" vertex="1" parent="1">
          <mxGeometry x="950" y="440" width="120" height="60" as="geometry" />
        </mxCell>
        <mxCell id="OlUA_QKoWYIxiVcciG1O-17" value="RED LIGHT&lt;div&gt;EW&lt;/div&gt;" style="rounded=1;whiteSpace=wrap;html=1;arcSize=24;fillColor=#ffffc0;strokeColor=#ff0000;shadow=0;comic=0;labelBackgroundColor=none;fontFamily=Verdana;fontSize=12;fontColor=#000000;align=center;" vertex="1" parent="1">
          <mxGeometry x="500" y="370" width="120" height="60" as="geometry" />
        </mxCell>
        <mxCell id="OlUA_QKoWYIxiVcciG1O-18" value="60 Secs" style="text;html=1;align=center;verticalAlign=middle;resizable=0;points=[];autosize=1;strokeColor=none;fillColor=none;" vertex="1" parent="1">
          <mxGeometry x="910" y="355" width="70" height="30" as="geometry" />
        </mxCell>
        <mxCell id="OlUA_QKoWYIxiVcciG1O-19" value="50 Secs" style="text;html=1;align=center;verticalAlign=middle;resizable=0;points=[];autosize=1;strokeColor=none;fillColor=none;" vertex="1" parent="1">
          <mxGeometry x="625" y="368" width="70" height="30" as="geometry" />
        </mxCell>
        <mxCell id="OlUA_QKoWYIxiVcciG1O-20" style="edgeStyle=orthogonalEdgeStyle;html=1;labelBackgroundColor=none;endArrow=open;endSize=8;strokeColor=#ff0000;fontFamily=Verdana;fontSize=12;align=left;exitX=0;exitY=0.75;exitDx=0;exitDy=0;" edge="1" parent="1" source="OlUA_QKoWYIxiVcciG1O-16" target="OlUA_QKoWYIxiVcciG1O-17">
          <mxGeometry relative="1" as="geometry">
            <Array as="points">
              <mxPoint x="950" y="490" />
              <mxPoint x="610" y="490" />
            </Array>
            <mxPoint x="940" y="490" as="sourcePoint" />
            <mxPoint x="290" y="440" as="targetPoint" />
          </mxGeometry>
        </mxCell>
        <mxCell id="OlUA_QKoWYIxiVcciG1O-21" value="5 Secs" style="text;html=1;align=center;verticalAlign=middle;resizable=0;points=[];autosize=1;strokeColor=none;fillColor=none;" vertex="1" parent="1">
          <mxGeometry x="670" y="468" width="60" height="30" as="geometry" />
        </mxCell>
        <mxCell id="OlUA_QKoWYIxiVcciG1O-22" value="65 Secs" style="text;html=1;align=center;verticalAlign=middle;resizable=0;points=[];autosize=1;strokeColor=none;fillColor=none;" vertex="1" parent="1">
          <mxGeometry x="410" y="340" width="70" height="30" as="geometry" />
        </mxCell>
        <mxCell id="OlUA_QKoWYIxiVcciG1O-23" value="YELLOW LIGHT&lt;div&gt;NE&lt;/div&gt;" style="rounded=1;whiteSpace=wrap;html=1;arcSize=24;fillColor=#ffffc0;strokeColor=#ff0000;shadow=0;comic=0;labelBackgroundColor=none;fontFamily=Verdana;fontSize=12;fontColor=#000000;align=center;" vertex="1" parent="1">
          <mxGeometry x="420" y="650" width="120" height="60" as="geometry" />
        </mxCell>
        <mxCell id="OlUA_QKoWYIxiVcciG1O-24" value="RED LIGHT&lt;div&gt;NE&lt;/div&gt;" style="rounded=1;whiteSpace=wrap;html=1;arcSize=24;fillColor=#ffffc0;strokeColor=#ff0000;shadow=0;comic=0;labelBackgroundColor=none;fontFamily=Verdana;fontSize=12;fontColor=#000000;align=center;" vertex="1" parent="1">
          <mxGeometry x="665" y="690" width="120" height="60" as="geometry" />
        </mxCell>
        <mxCell id="OlUA_QKoWYIxiVcciG1O-25" value="RED LIGHT&lt;div&gt;SW&lt;/div&gt;" style="rounded=1;whiteSpace=wrap;html=1;arcSize=24;fillColor=#ffffc0;strokeColor=#ff0000;shadow=0;comic=0;labelBackgroundColor=none;fontFamily=Verdana;fontSize=12;fontColor=#000000;align=center;" vertex="1" parent="1">
          <mxGeometry x="1120" y="590" width="120" height="60" as="geometry" />
        </mxCell>
        <mxCell id="OlUA_QKoWYIxiVcciG1O-26" value="YELLOW LIGHT&lt;div&gt;SW&lt;/div&gt;" style="rounded=1;whiteSpace=wrap;html=1;arcSize=24;fillColor=#ffffc0;strokeColor=#ff0000;shadow=0;comic=0;labelBackgroundColor=none;fontFamily=Verdana;fontSize=12;fontColor=#000000;align=center;" vertex="1" parent="1">
          <mxGeometry x="930" y="690" width="120" height="60" as="geometry" />
        </mxCell>
        <mxCell id="OlUA_QKoWYIxiVcciG1O-27" value="GREEN LIGHT&lt;div&gt;SW&lt;/div&gt;" style="rounded=1;whiteSpace=wrap;html=1;arcSize=24;fillColor=#ffffc0;strokeColor=#ff0000;shadow=0;comic=0;labelBackgroundColor=none;fontFamily=Verdana;fontSize=12;fontColor=#000000;align=center;" vertex="1" parent="1">
          <mxGeometry x="840" y="570" width="120" height="60" as="geometry" />
        </mxCell>
        <mxCell id="OlUA_QKoWYIxiVcciG1O-29" style="edgeStyle=orthogonalEdgeStyle;html=1;labelBackgroundColor=none;endArrow=open;endSize=8;strokeColor=#ff0000;fontFamily=Verdana;fontSize=12;align=left;" edge="1" parent="1" source="OlUA_QKoWYIxiVcciG1O-23">
          <mxGeometry relative="1" as="geometry">
            <mxPoint x="430" y="634.9300000000001" as="sourcePoint" />
            <mxPoint x="690" y="690" as="targetPoint" />
            <Array as="points">
              <mxPoint x="430" y="600" />
              <mxPoint x="690" y="600" />
            </Array>
          </mxGeometry>
        </mxCell>
        <mxCell id="OlUA_QKoWYIxiVcciG1O-30" style="edgeStyle=orthogonalEdgeStyle;html=1;labelBackgroundColor=none;endArrow=open;endSize=8;strokeColor=#ff0000;fontFamily=Verdana;fontSize=12;align=left;" edge="1" parent="1">
          <mxGeometry relative="1" as="geometry">
            <mxPoint x="960" y="620" as="sourcePoint" />
            <mxPoint x="1025" y="690" as="targetPoint" />
          </mxGeometry>
        </mxCell>
        <mxCell id="OlUA_QKoWYIxiVcciG1O-32" style="edgeStyle=orthogonalEdgeStyle;html=1;labelBackgroundColor=none;endArrow=open;endSize=8;strokeColor=#ff0000;fontFamily=Verdana;fontSize=12;align=left;exitX=1;exitY=0.5;exitDx=0;exitDy=0;" edge="1" parent="1" source="OlUA_QKoWYIxiVcciG1O-26">
          <mxGeometry relative="1" as="geometry">
            <Array as="points">
              <mxPoint x="1065" y="720" />
              <mxPoint x="1065" y="730" />
              <mxPoint x="1220" y="730" />
              <mxPoint x="1220" y="650" />
            </Array>
            <mxPoint x="1065" y="680" as="sourcePoint" />
            <mxPoint x="1220" y="650" as="targetPoint" />
          </mxGeometry>
        </mxCell>
        <mxCell id="OlUA_QKoWYIxiVcciG1O-34" value="65 Secs" style="text;html=1;align=center;verticalAlign=middle;resizable=0;points=[];autosize=1;strokeColor=none;fillColor=none;" vertex="1" parent="1">
          <mxGeometry x="865" y="888" width="70" height="30" as="geometry" />
        </mxCell>
        <mxCell id="OlUA_QKoWYIxiVcciG1O-36" value="5 Secs" style="text;html=1;align=center;verticalAlign=middle;resizable=0;points=[];autosize=1;strokeColor=none;fillColor=none;" vertex="1" parent="1">
          <mxGeometry x="560" y="580" width="60" height="30" as="geometry" />
        </mxCell>
        <mxCell id="OlUA_QKoWYIxiVcciG1O-46" value="" style="edgeStyle=orthogonalEdgeStyle;rounded=0;orthogonalLoop=1;jettySize=auto;html=1;" edge="1" parent="1" target="OlUA_QKoWYIxiVcciG1O-27">
          <mxGeometry relative="1" as="geometry">
            <mxPoint x="1010" y="594.9999999999998" as="sourcePoint" />
          </mxGeometry>
        </mxCell>
        <mxCell id="OlUA_QKoWYIxiVcciG1O-38" value="5 Secs" style="text;html=1;align=center;verticalAlign=middle;resizable=0;points=[];autosize=1;strokeColor=none;fillColor=none;" vertex="1" parent="1">
          <mxGeometry x="1070" y="708" width="60" height="30" as="geometry" />
        </mxCell>
        <mxCell id="OlUA_QKoWYIxiVcciG1O-39" value="60 Secs" style="text;html=1;align=center;verticalAlign=middle;resizable=0;points=[];autosize=1;strokeColor=none;fillColor=none;" vertex="1" parent="1">
          <mxGeometry x="960" y="638" width="70" height="30" as="geometry" />
        </mxCell>
        <mxCell id="OlUA_QKoWYIxiVcciG1O-41" style="edgeStyle=orthogonalEdgeStyle;html=1;labelBackgroundColor=none;endArrow=open;endSize=8;strokeColor=#ff0000;fontFamily=Verdana;fontSize=12;align=left;exitX=0.869;exitY=-0.072;exitDx=0;exitDy=0;exitPerimeter=0;entryX=0.917;entryY=0.001;entryDx=0;entryDy=0;entryPerimeter=0;" edge="1" parent="1" source="OlUA_QKoWYIxiVcciG1O-25" target="OlUA_QKoWYIxiVcciG1O-2">
          <mxGeometry relative="1" as="geometry">
            <Array as="points">
              <mxPoint x="1210" y="586" />
              <mxPoint x="1210" y="180" />
            </Array>
            <mxPoint x="674.9300000000001" y="742.9300000000001" as="sourcePoint" />
            <mxPoint x="650" y="200" as="targetPoint" />
          </mxGeometry>
        </mxCell>
        <mxCell id="OlUA_QKoWYIxiVcciG1O-42" value="GREEN LIGHT&lt;div&gt;NE&lt;/div&gt;" style="rounded=1;whiteSpace=wrap;html=1;arcSize=24;fillColor=#ffffc0;strokeColor=#ff0000;shadow=0;comic=0;labelBackgroundColor=none;fontFamily=Verdana;fontSize=12;fontColor=#000000;align=center;" vertex="1" parent="1">
          <mxGeometry x="305" y="550" width="120" height="60" as="geometry" />
        </mxCell>
        <mxCell id="OlUA_QKoWYIxiVcciG1O-44" style="edgeStyle=orthogonalEdgeStyle;html=1;labelBackgroundColor=none;endArrow=open;endSize=8;strokeColor=#ff0000;fontFamily=Verdana;fontSize=12;align=left;exitX=0.5;exitY=0;exitDx=0;exitDy=0;entryX=0;entryY=0.667;entryDx=0;entryDy=0;entryPerimeter=0;" edge="1" parent="1" source="OlUA_QKoWYIxiVcciG1O-24" target="OlUA_QKoWYIxiVcciG1O-27">
          <mxGeometry relative="1" as="geometry">
            <mxPoint x="829.55" y="620" as="targetPoint" />
            <mxPoint x="720" y="680" as="sourcePoint" />
          </mxGeometry>
        </mxCell>
        <mxCell id="OlUA_QKoWYIxiVcciG1O-45" value="60 Secs" style="text;html=1;align=center;verticalAlign=middle;resizable=0;points=[];autosize=1;strokeColor=none;fillColor=none;" vertex="1" parent="1">
          <mxGeometry x="735" y="578" width="70" height="30" as="geometry" />
        </mxCell>
        <mxCell id="OlUA_QKoWYIxiVcciG1O-50" style="edgeStyle=orthogonalEdgeStyle;html=1;labelBackgroundColor=none;endArrow=open;endSize=8;strokeColor=#ff0000;fontFamily=Verdana;fontSize=12;align=left;entryX=1;entryY=0.25;entryDx=0;entryDy=0;exitX=0;exitY=0.25;exitDx=0;exitDy=0;" edge="1" parent="1" source="OlUA_QKoWYIxiVcciG1O-6" target="OlUA_QKoWYIxiVcciG1O-7">
          <mxGeometry relative="1" as="geometry">
            <mxPoint x="1050" y="350" as="sourcePoint" />
            <mxPoint x="885" y="360" as="targetPoint" />
          </mxGeometry>
        </mxCell>
        <mxCell id="OlUA_QKoWYIxiVcciG1O-51" value="60 Secs" style="text;html=1;align=center;verticalAlign=middle;resizable=0;points=[];autosize=1;strokeColor=none;fillColor=none;" vertex="1" parent="1">
          <mxGeometry x="935" y="398" width="70" height="30" as="geometry" />
        </mxCell>
        <mxCell id="OlUA_QKoWYIxiVcciG1O-52" style="edgeStyle=orthogonalEdgeStyle;html=1;labelBackgroundColor=none;endArrow=open;endSize=8;strokeColor=#ff0000;fontFamily=Verdana;fontSize=12;align=left;entryX=0;entryY=0.5;entryDx=0;entryDy=0;exitX=0;exitY=0.75;exitDx=0;exitDy=0;" edge="1" parent="1" source="OlUA_QKoWYIxiVcciG1O-42" target="OlUA_QKoWYIxiVcciG1O-23">
          <mxGeometry relative="1" as="geometry">
            <Array as="points">
              <mxPoint x="305" y="680" />
            </Array>
            <mxPoint x="315" y="617.9100000000001" as="sourcePoint" />
            <mxPoint x="380" y="660" as="targetPoint" />
          </mxGeometry>
        </mxCell>
        <mxCell id="OlUA_QKoWYIxiVcciG1O-53" value="60 Secs" style="text;html=1;align=center;verticalAlign=middle;resizable=0;points=[];autosize=1;strokeColor=none;fillColor=none;" vertex="1" parent="1">
          <mxGeometry x="310" y="650" width="70" height="30" as="geometry" />
        </mxCell>
      </root>
    </mxGraphModel>
  </diagram>
</mxfile>
